<svg width="11" height="15" viewBox="0 0 11 15" fill="none" xmlns="http://www.w3.org/2000/svg">
<path d="M10.8329 0.0589658C10.7275 -0.0046702 10.5968 -0.0126403 10.4842 0.0375461L9.35074 0.565928L8.21727 0.0375461C8.11933 -0.0125154 8.00289 -0.0125154 7.90496 0.0375461L6.77882 0.565928L5.65269 0.0375461C5.55475 -0.0125154 5.43806 -0.0125154 5.34012 0.0375461L4.20665 0.565928L3.08052 0.0375461C2.98271 -0.0125154 2.86601 -0.0125154 2.7682 0.0375461L1.64206 0.565928L0.515801 0.0375461C0.403798 -0.0163761 0.271266 -0.00828159 0.167118 0.0589658C0.063097 0.12447 0.000126499 0.237421 0 0.358837V14.6412C0.000126694 14.7626 0.063097 14.8755 0.167118 14.941C0.271266 15.0083 0.403798 15.0164 0.515801 14.9625L1.64194 14.4341L2.76807 14.9625C2.81824 14.9852 2.87273 14.9974 2.92797 14.9982C2.98093 14.9973 3.033 14.9852 3.08052 14.9625L4.20665 14.4341L5.34011 14.9625C5.43805 15.0125 5.55462 15.0125 5.65256 14.9625L6.77869 14.4341L7.90483 14.9625C8.00276 15.0125 8.11946 15.0125 8.2174 14.9625L9.35086 14.4341L10.4843 14.9625C10.5963 15.0164 10.7287 15.0083 10.8329 14.941C10.9369 14.8755 10.9999 14.7626 11 14.6412V0.358837C10.9999 0.237418 10.9369 0.124467 10.8329 0.0589658ZM3.51638 6.13597H6.61158L5.65979 5.20047C5.5901 5.13534 5.5507 5.04506 5.5507 4.95054C5.5507 4.85602 5.5901 4.76573 5.65979 4.70061C5.72795 4.63298 5.82082 4.595 5.91762 4.595C6.01455 4.595 6.10743 4.63298 6.17559 4.70061L7.74492 6.24306C7.84768 6.34605 7.8772 6.4996 7.82006 6.63235C7.76279 6.76511 7.63 6.85091 7.48341 6.85016H3.51653C3.31596 6.85016 3.15328 6.69026 3.15328 6.49301C3.15328 6.29587 3.31581 6.13597 3.51638 6.13597ZM7.48326 8.86383L4.38805 8.86395L5.33984 9.79944C5.40953 9.86458 5.44893 9.95486 5.44893 10.0494C5.44893 10.1439 5.40953 10.2342 5.33984 10.2993C5.27282 10.3666 5.18147 10.405 5.08555 10.4064C4.98736 10.4063 4.89322 10.3678 4.82404 10.2993L3.25471 8.75685C3.15195 8.65386 3.12243 8.50032 3.17957 8.36756C3.23684 8.23481 3.36963 8.14901 3.51622 8.14976H7.4831C7.68367 8.14976 7.84635 8.30966 7.84635 8.50691C7.84635 8.70405 7.68382 8.86383 7.48326 8.86383Z" fill="#7A7B80"/>
</svg>
