<svg width="16" height="13" viewBox="0 0 16 13" fill="none" xmlns="http://www.w3.org/2000/svg">
<path d="M5.51167 8.95425L3.30809 11.1564C3.10214 11.3536 2.82796 11.4637 2.54285 11.4637C2.25762 11.4637 1.98343 11.3536 1.77749 11.1564L1.39522 10.7741C1.19246 10.5709 1.07844 10.2956 1.07833 10.0085C1.07821 9.72146 1.19189 9.44602 1.39443 9.24268L4.63801 5.99911C4.65692 5.9802 4.67662 5.96198 4.69701 5.94466C4.71512 5.92803 4.73415 5.91368 4.75306 5.89921C4.77197 5.88486 4.79088 5.87199 4.81058 5.8598H4.8107C4.81913 5.85285 4.82824 5.84681 4.83792 5.84168C4.87107 5.82095 4.90547 5.80216 4.94089 5.78564L4.94693 5.78256C5.15356 5.68802 5.38458 5.66023 5.60772 5.70317C5.82062 5.74326 6.01632 5.84669 6.16942 5.99991L6.55169 6.38218C6.65318 6.48481 6.73201 6.6075 6.78338 6.74246C6.82086 6.72447 6.85514 6.70043 6.88476 6.67127L7.59407 5.96345V5.96356C7.51297 5.83997 7.41945 5.72503 7.31477 5.62057L7.31329 5.61909L6.93247 5.23682L6.93167 5.23602C6.70625 5.01014 6.43355 4.83721 6.13304 4.72958C6.10046 4.71819 6.06641 4.70691 6.03314 4.69632C5.89771 4.65645 5.75885 4.62911 5.61827 4.61453C5.61747 4.61373 5.61679 4.61453 5.61599 4.61373C5.54559 4.60838 5.4752 4.60462 5.40401 4.60462C5.37519 4.60462 5.34569 4.60542 5.31618 4.6061C5.27757 4.60838 5.23827 4.60986 5.19886 4.61442L5.18223 4.6159V4.61601C4.68786 4.66499 4.22595 4.88438 3.87567 5.23682L0.632093 8.4804C0.227485 8.88591 0.000116687 9.4353 4.28404e-08 10.0083C-0.00011386 10.5812 0.226907 11.1306 0.631393 11.5364L0.632191 11.5372L1.01446 11.918L1.01594 11.9195C1.42102 12.3247 1.9705 12.5522 2.54348 12.5522C3.11644 12.5522 3.66595 12.3246 4.07114 11.9195L6.84096 9.14964C6.75269 9.15842 6.66395 9.16274 6.57521 9.16252C6.21047 9.16343 5.84916 9.09269 5.51162 8.95429L5.51167 8.95425Z" fill="#7A7B80"/>
<path d="M7.34037 7.12382C7.13579 7.3235 6.8607 7.43423 6.5749 7.43205C6.43615 7.43159 6.29866 7.40585 6.16915 7.35607C6.03451 7.3047 5.91206 7.22598 5.80942 7.12483L5.42727 6.74268C5.32395 6.63947 5.24273 6.51645 5.18851 6.38079C5.15285 6.40004 5.12039 6.42453 5.09214 6.45358L4.38452 7.1612V7.16131C4.46574 7.28468 4.55937 7.3995 4.66394 7.50384L5.0461 7.88599C5.04712 7.88702 5.04712 7.88702 5.04712 7.88816H5.04724C5.15203 7.99261 5.2672 8.08625 5.39078 8.16758C5.80632 8.43982 6.30297 8.56046 6.79713 8.50943C7.29114 8.45828 7.75262 8.23855 8.10357 7.88713L9.3101 6.6806C9.05301 6.42236 8.82997 6.13246 8.64634 5.81773L7.34037 7.12382Z" fill="#7A7B80"/>
<path d="M6.46788 4.16894L8.2975 2.33932C8.52771 1.66293 8.92458 1.05545 9.45152 0.57292H9.43648C8.86306 0.57087 8.31253 0.798349 7.90781 1.20455L5.13818 3.97519C5.22487 3.96665 5.31372 3.96232 5.40371 3.96232C5.76845 3.96152 6.12988 4.03169 6.46785 4.16895L6.46788 4.16894Z" fill="#7A7B80"/>
<path d="M12.3044 1.98176e-07C11.3244 0.000114101 10.3847 0.389562 9.69185 1.0826C8.99893 1.77564 8.60984 2.7155 8.60992 3.69548C8.61004 4.67544 8.99949 5.61532 9.69253 6.30813C10.3856 7.00094 11.3255 7.39015 12.3055 7.39006C13.2854 7.38983 14.2252 7.0005 14.918 6.30734C15.6109 5.6143 16 4.67445 16 3.69446C16 2.71439 15.6106 1.7745 14.9175 1.0817C14.2244 0.388774 13.2845 -0.000320573 12.3044 1.98176e-07V1.98176e-07ZM14.0408 3.0447L12.0143 5.07127C11.9623 5.12367 11.8916 5.15317 11.8179 5.15317C11.7441 5.15317 11.6733 5.12367 11.6214 5.07127L11.4951 4.94494L10.5691 4.02319C10.481 3.93571 10.4317 3.81656 10.4321 3.69239C10.4307 3.56857 10.4798 3.44954 10.5679 3.36261L10.5733 3.35726C10.662 3.26932 10.7819 3.22 10.9068 3.22C11.0317 3.22 11.1516 3.26932 11.2403 3.35726L11.8173 3.93319L13.3739 2.37342V2.37354C13.4615 2.2856 13.5806 2.23628 13.7047 2.2365C13.8282 2.23628 13.9467 2.2856 14.0334 2.37354L14.0397 2.37787L14.0399 2.37775C14.128 2.46626 14.1777 2.58609 14.1779 2.71106C14.1781 2.83602 14.1288 2.95597 14.0409 3.04469L14.0408 3.0447Z" fill="#7A7B80"/>
</svg>
