<svg width="16" height="20" viewBox="0 0 16 20" fill="none" xmlns="http://www.w3.org/2000/svg">
<path d="M13.3187 6.80633C13.1892 6.5295 12.9079 6.35059 12.602 6.35059H9.69956L12.9531 1.21529C13.1068 0.972884 13.1168 0.665022 12.9784 0.410875C12.8397 0.157465 12.5736 0 12.284 0L7.20326 0.000141089C6.90046 0.000141089 6.62901 0.168613 6.49522 0.438251L1.73231 9.96333C1.60899 10.2086 1.62169 10.4958 1.76773 10.7346C1.91348 10.9691 2.16506 11.109 2.44034 11.109H4.99152L1.71088 18.9014C1.55849 19.2633 1.6907 19.676 2.03229 19.8875C2.15618 19.9612 2.29713 20 2.44064 20C2.67415 20 2.89482 19.8978 3.0465 19.7184L13.2073 7.65291C13.4064 7.4177 13.45 7.08484 13.3188 6.80645L13.3187 6.80633ZM2.98418 18.3199L6.14223 10.8186C6.20389 10.6723 6.18809 10.5048 6.10019 10.3724C6.01228 10.2403 5.86413 10.1606 5.70509 10.1606H2.69366L7.30016 0.947946H11.9998L8.43757 6.57088C8.34529 6.71692 8.33922 6.90176 8.42275 7.05317C8.50614 7.20457 8.66544 7.29868 8.838 7.29868H12.2654L2.98418 18.3199Z" fill="#828282"/>
<line x1="0.353553" y1="2.2946" x2="14.2604" y2="16.2015" stroke="#828282"/>
<line x1="1.00192" y1="1.64666" x2="14.9088" y2="15.5535" stroke="white"/>
</svg>
