<svg width="20" height="14" viewBox="0 0 20 14" fill="none" xmlns="http://www.w3.org/2000/svg">
<path d="M18.9997 5.29443H17.9996C17.797 5.29485 17.5993 5.35631 17.4325 5.47076C17.2658 5.58535 17.138 5.74753 17.0661 5.93594C16.0616 5.80137 14.183 4.988 12.5426 3.97094L13.7505 2.77034C13.9057 2.61677 13.993 2.40826 13.9934 2.19059C13.9937 1.97306 13.907 1.76412 13.7524 1.61012L12.3746 0.238483C12.2188 0.0862927 12.0093 0.000835319 11.791 4.25836e-06C11.5726 -0.000689394 11.3626 0.0833839 11.2058 0.234463L9.51511 1.91338C8.92838 1.65395 8.27343 1.5875 7.64599 1.72388C7.01854 1.86039 6.45135 2.1925 6.02704 2.67182L1.65679 7.6422C1.36406 7.97461 1.17247 8.38288 1.10453 8.81961C1.03645 9.2562 1.09491 9.70306 1.2728 10.108L0.839422 10.5389C0.700313 10.6754 0.601667 10.8475 0.554642 11.0361L0.0142454 13.1755C-0.030543 13.3776 0.031826 13.5887 0.179586 13.7346C0.327346 13.8805 0.539994 13.941 0.742987 13.8951L2.88293 13.3602C2.91628 13.3525 2.94962 13.3413 2.98032 13.3306C3.25896 13.6947 3.69149 13.9097 4.15166 13.913C4.61169 13.9163 5.04729 13.7074 5.33122 13.3475C5.61195 13.7045 6.04239 13.913 6.4981 13.913C6.95381 13.913 7.38426 13.7045 7.66498 13.3475C7.9079 13.6548 8.26328 13.854 8.6534 13.9017C9.04367 13.9493 9.43687 13.8417 9.74759 13.6021C10.0582 13.3625 10.2608 13.0105 10.3113 12.6229C11.1303 13.0784 12.0617 13.2956 12.999 13.25C14.8659 13.25 15.9298 12.8296 16.2932 12.6533C16.5412 12.578 16.8024 12.5555 17.0599 12.5871C17.1287 12.7805 17.2559 12.9479 17.4242 13.0666C17.5924 13.1853 17.7935 13.2494 17.9997 13.25H18.9999C19.2651 13.25 19.5195 13.1452 19.7071 12.9588C19.8947 12.7723 20 12.5193 20 12.2555V6.28894C20 6.02521 19.8947 5.7723 19.7071 5.58585C19.5195 5.39939 19.2649 5.29443 18.9997 5.29443ZM6.60296 8.9408H5.66451C5.22248 8.94136 4.79888 9.11616 4.48634 9.42679C4.17394 9.73755 3.99813 10.1587 3.99756 10.5982C4.00007 10.8575 4.06579 11.1125 4.18927 11.341L3.00343 12.5208L1.39716 10.922L10.3316 2.03962L11.9379 3.6371L6.60296 8.9408ZM11.6808 0.699445C11.7097 0.670312 11.7493 0.654081 11.7906 0.654774C11.8318 0.655468 11.871 0.672948 11.8989 0.703192L13.2861 2.08275C13.3154 2.11147 13.3316 2.15101 13.3309 2.19193C13.3302 2.23286 13.3126 2.27184 13.2823 2.29959L12.4092 3.16776L10.8036 1.5711L11.6808 0.699445ZM2.15805 8.07884L6.52795 3.11023C6.82905 2.77103 7.2228 2.52604 7.66132 2.40518C8.09985 2.28421 8.5642 2.29267 8.99801 2.42932L1.79414 9.58887C1.65852 9.05657 1.79445 8.4921 2.15805 8.07884ZM0.688522 13.225L1.10683 11.5716L2.351 12.8094L0.688522 13.225ZM4.16404 13.2499C3.91401 13.2492 3.67766 13.1364 3.52053 12.943L4.60939 11.8603C4.72674 11.9605 4.85733 12.044 4.99741 12.1089V12.4212C4.99741 12.641 4.90965 12.8519 4.75324 13.0072C4.59697 13.1626 4.38504 13.2499 4.16404 13.2499ZM6.49766 13.2499C6.27664 13.2499 6.06456 13.1626 5.90829 13.0072C5.75202 12.8518 5.66426 12.641 5.66426 12.4212V12.2554H7.3312V12.4212C7.3312 12.641 7.2433 12.8518 7.08703 13.0072C6.93076 13.1626 6.71869 13.2499 6.49766 13.2499ZM8.83127 13.2499C8.61026 13.2499 8.39832 13.1626 8.24204 13.0072C8.08563 12.8518 7.99787 12.641 7.99787 12.4212V12.2554C7.99787 12.2554 9.63817 12.259 9.66482 12.2621V12.4212C9.66482 12.641 9.57692 12.8518 9.42065 13.0072C9.26437 13.1626 9.05241 13.2499 8.83127 13.2499ZM16.0055 12.0543C15.6772 12.2144 14.7274 12.587 12.9985 12.587C11.474 12.587 10.7359 12.1528 10.4274 11.8908C10.1894 11.6981 9.89178 11.5928 9.58466 11.5926H5.66411C5.40096 11.5859 5.15036 11.4789 4.96423 11.2939C4.7781 11.1088 4.67052 10.8598 4.66397 10.5981C4.66397 10.3344 4.76931 10.0813 4.95683 9.89487C5.14436 9.70842 5.39886 9.60368 5.66411 9.60368H8.99793C9.62245 9.61228 10.2417 9.48797 10.8139 9.23893C10.9787 9.15749 11.0459 8.95842 10.9639 8.79442C10.8819 8.63058 10.6816 8.56371 10.5168 8.64529C10.0364 8.847 9.51934 8.94758 8.99794 8.94065H7.5456L12.0612 4.45078C13.6428 5.44522 15.7542 6.43006 16.9987 6.59379V11.9239C16.6619 11.8924 16.3225 11.937 16.0055 12.0543ZM19.3327 12.2554C19.3327 12.3434 19.2976 12.4277 19.2351 12.4899C19.1725 12.552 19.0878 12.587 18.9993 12.587H17.9992C17.815 12.587 17.6659 12.4386 17.6659 12.2554V6.28884C17.6659 6.10586 17.815 5.95741 17.9992 5.95741H18.9993C19.0878 5.95741 19.1725 5.99237 19.2351 6.05453C19.2976 6.11668 19.3327 6.20103 19.3327 6.28885V12.2554Z" fill="#4F4F4F"/>
</svg>
