<svg width="20" height="20" viewBox="0 0 20 20" fill="none" xmlns="http://www.w3.org/2000/svg">
<path d="M18.1274 5.31159e-05H1.8724C0.84086 5.31159e-05 0 0.915992 0 2.04298V12.4619C0 13.5453 0.778043 14.4352 1.75605 14.5001L1.5235 18.39C1.55739 19.0982 1.97864 19.6972 2.59688 19.9173C2.75502 19.9735 2.91647 20 3.07792 20C3.54103 20 3.9932 19.7676 4.32242 19.3201L7.30706 14.5055H18.1276C19.1591 14.5055 20 13.5877 20 12.4618V2.04293C19.9997 0.916293 19.1585 0 18.1273 0L18.1274 5.31159e-05ZM18.6763 12.462C18.6763 12.7931 18.4311 13.0611 18.1274 13.0611H6.95651C6.73692 13.0611 6.53194 13.1807 6.40935 13.3798L3.26193 18.4624C3.17489 18.5821 3.06659 18.5665 3.00679 18.5451C2.94865 18.5241 2.85198 18.4675 2.84367 18.399L3.1214 13.8309C3.13269 13.6318 3.0699 13.4364 2.94367 13.2899C2.81942 13.1437 2.64335 13.0607 2.46096 13.0607H1.87194C1.56863 13.0607 1.32312 12.7931 1.32312 12.4617V2.04281C1.32312 1.71248 1.56863 1.44307 1.87194 1.44307H18.1278C18.4312 1.44307 18.6767 1.71248 18.6767 2.04281L18.6763 12.462Z" fill="#4F4F4F"/>
<path d="M7.78657 7.59236C7.78657 8.25955 7.29091 8.80022 6.6796 8.80022C6.06866 8.80022 5.57297 8.25958 5.57297 7.59236C5.57297 6.92514 6.06863 6.38412 6.6796 6.38412C7.29088 6.38412 7.78657 6.92513 7.78657 7.59236Z" fill="#4F4F4F"/>
<path d="M11.453 7.59236C11.453 8.25955 10.9576 8.80022 10.3463 8.80022C9.73502 8.80022 9.23935 8.25958 9.23935 7.59236C9.23935 6.92514 9.73501 6.38412 10.3463 6.38412C10.9576 6.38412 11.453 6.92513 11.453 7.59236Z" fill="#4F4F4F"/>
<path d="M15.1193 7.59236C15.1193 8.25955 14.6237 8.80022 14.0124 8.80022C13.4014 8.80022 12.9057 8.25958 12.9057 7.59236C12.9057 6.92514 13.4014 6.38412 14.0124 6.38412C14.6236 6.38412 15.1193 6.92513 15.1193 7.59236Z" fill="#4F4F4F"/>
</svg>
