<svg width="20" height="20" viewBox="0 0 20 20" fill="none" xmlns="http://www.w3.org/2000/svg">
<path d="M7.73741 18.6732C5.96819 20.4424 3.09594 20.4424 1.32686 18.6732C-0.442216 16.904 -0.442359 14.0317 1.32686 12.2626L5.09781 8.49168C6.86703 6.72246 9.73928 6.72246 11.5084 8.49168H11.5085C11.6108 8.59119 11.6689 8.72753 11.67 8.87019C11.6709 9.01304 11.6147 9.15012 11.5138 9.25112C11.4128 9.35193 11.2757 9.40829 11.1328 9.40735C10.9902 9.40624 10.8538 9.34821 10.7543 9.24591C9.38983 7.88142 7.2164 7.88142 5.85224 9.24591L2.08129 13.0169C0.71681 14.3813 0.71681 16.5548 2.08129 17.9189C3.44578 19.2834 5.61921 19.2834 6.98336 17.9189L10.5657 14.3364V14.3366C10.6652 14.2343 10.8016 14.1762 10.9442 14.1753C11.0869 14.1744 11.2241 14.2306 11.325 14.3316C11.4258 14.4324 11.4821 14.5695 11.4812 14.7121C11.4803 14.8548 11.422 14.9911 11.3199 15.0908L7.73759 18.6732L7.73741 18.6732ZM14.9022 11.5084C13.133 13.2776 10.2607 13.2776 8.49164 11.5084C8.38935 11.4089 8.33094 11.2725 8.33001 11.1297C8.32889 10.9868 8.38525 10.8496 8.48625 10.7488C8.58725 10.6478 8.72433 10.5914 8.86718 10.5925C9.01002 10.5935 9.14636 10.6519 9.24587 10.7542C10.6104 12.1186 12.7838 12.1186 14.1479 10.7542L17.9189 6.98321C19.2834 5.61873 19.2834 3.4453 17.9189 2.08114C16.5544 0.716659 14.381 0.716659 13.0168 2.08114L9.43448 5.66349C9.33497 5.76579 9.19863 5.82401 9.05578 5.82512C8.91312 5.82605 8.77585 5.76988 8.67486 5.66888C8.57386 5.56788 8.51768 5.4308 8.51862 5.28795C8.51973 5.14529 8.57795 5.00877 8.68025 4.90926L12.2626 1.32692C14.0318 -0.442305 16.9041 -0.442305 18.6731 1.32692C20.4422 3.09614 20.4424 5.96838 18.6731 7.73746L14.9022 11.5084Z" fill="#4F4F4F"/>
</svg>
