<svg width="18" height="18" viewBox="0 0 18 18" fill="none" xmlns="http://www.w3.org/2000/svg">
<path d="M9 0C6.613 0 4.32378 0.948282 2.63617 2.63617C0.948282 4.32387 0 6.61309 0 9C0 11.3869 0.948282 13.6762 2.63617 15.3638C4.32387 17.0517 6.61309 18 9 18C11.3869 18 13.6762 17.0517 15.3638 15.3638C17.0517 13.6761 18 11.3869 18 9C17.9974 6.61396 17.0482 4.32619 15.361 2.63907C13.6737 0.951946 11.386 0.00269996 9.0001 9.63759e-05L9 0ZM15.4853 5.25007H12.4314C12.2497 4.08613 11.8967 2.95555 11.3841 1.89502C13.1125 2.47962 14.5698 3.67182 15.4853 5.25007H15.4853ZM16.5001 9.00005C16.5005 9.76338 16.3837 10.5222 16.1541 11.2501H12.6371C12.7102 10.5128 12.7501 9.75644 12.7501 9.00005C12.7501 8.24366 12.7102 7.48732 12.6371 6.74998H16.1543H16.1541C16.3837 7.47792 16.5005 8.23672 16.5001 9.00005H16.5001ZM9.00034 16.4998C8.3856 16.4998 7.55521 15.0908 7.09457 12.7498H10.9062C10.4455 15.0909 9.61512 16.4998 9.00039 16.4998H9.00034ZM6.87022 11.2497V11.2499C6.71032 9.75417 6.71032 8.24558 6.87022 6.74978H11.1306H11.1304C11.2108 7.4971 11.2508 8.24819 11.2504 8.99985C11.2508 9.75151 11.2108 10.5026 11.1304 11.2499L6.87022 11.2497ZM1.5001 8.99986C1.49972 8.23652 1.61649 7.47772 1.84607 6.74978H5.36327C5.29001 7.48713 5.25008 8.24347 5.25008 8.99986C5.25008 9.75624 5.29 10.5126 5.36308 11.2499H1.84608C1.6165 10.522 1.49973 9.76319 1.5001 8.99986H1.5001ZM8.99986 1.5001C9.61459 1.5001 10.445 2.90907 10.9056 5.25007H7.09403C7.55471 2.90902 8.38507 1.5001 8.99981 1.5001H8.99986ZM6.61589 1.89523V1.89504C6.10323 2.95557 5.7503 4.08615 5.56853 5.25009H2.51463C3.43012 3.67184 4.8875 2.47964 6.61584 1.89504L6.61589 1.89523ZM2.51467 12.7502H5.56858C5.75032 13.9142 6.10328 15.0448 6.61594 16.1053C4.88755 15.5207 3.43022 14.3285 2.51472 12.7502H2.51467ZM11.3837 16.1053C11.8964 15.0448 12.2493 13.9142 12.4311 12.7502H15.485C14.5695 14.3285 13.1121 15.5207 11.3838 16.1053H11.3837Z" fill="#4F4F4F" fill-opacity="0.6"/>
</svg>
