<svg width="20" height="20" viewBox="0 0 20 20" fill="none" xmlns="http://www.w3.org/2000/svg">
<path d="M18.9471 19.9998H1.05261C0.773482 19.9995 0.505864 19.8884 0.308501 19.6913C0.111373 19.4939 0.000234584 19.2263 0 18.9471V1.05261C0.000234945 0.773483 0.111373 0.505865 0.308501 0.308502C0.505864 0.111373 0.773488 0.000234584 1.05261 0H18.9471C19.2263 0.000234945 19.4939 0.111373 19.6913 0.308502C19.8884 0.505865 19.9995 0.773489 19.9998 1.05261V18.9471C19.9995 19.2263 19.8884 19.4939 19.6913 19.6913C19.4939 19.8884 19.2263 19.9995 18.9471 19.9998V19.9998ZM1.05261 1.05261V18.9471H18.9471V1.05381L1.05261 1.05261Z" fill="#4F4F4F"/>
<path d="M12.0107 19.9998H1.05261C0.773482 19.9995 0.505864 19.8884 0.308501 19.6913C0.111373 19.4939 0.000234584 19.2263 0 18.9471V14.3525C0 14.2573 0.025845 14.1638 0.0747172 14.082L3.83359 7.80483H3.83383C4.02367 7.48717 4.36672 7.29285 4.73679 7.29285C5.10687 7.29285 5.44987 7.48717 5.63976 7.80483L12.4619 19.2032C12.5592 19.366 12.5616 19.5683 12.468 19.733C12.3745 19.8977 12.1997 19.9997 12.0103 19.9997L12.0107 19.9998ZM1.05261 14.4979V18.9471H11.082L4.73678 8.34575L1.05261 14.4979Z" fill="#4F4F4F"/>
<path d="M18.9471 19.9998H12.0107C11.8255 19.9998 11.654 19.9025 11.5589 19.7436L10.2851 17.6121C10.1857 17.4455 10.1857 17.2378 10.2854 17.0714L14.8866 9.38429C15.0752 9.06545 15.419 8.87043 15.7895 8.87208C16.1601 8.87044 16.5038 9.06521 16.693 9.38382L19.9253 14.7823V14.7825C19.9742 14.864 20 14.9575 20 15.0527V18.9474C19.9998 19.2265 19.8887 19.4941 19.6915 19.6915C19.4942 19.8886 19.2265 19.9998 18.9474 20L18.9471 19.9998ZM12.309 18.9471H18.9471V15.1979L15.7895 9.9242L11.3498 17.3425L12.309 18.9471Z" fill="#4F4F4F"/>
<path d="M10.5262 8.94725C9.82833 8.94725 9.15899 8.67 8.66528 8.17661C8.17186 7.68296 7.89464 7.01356 7.89464 6.3157C7.89464 5.61785 8.17189 4.9485 8.66528 4.45479C9.15893 3.96138 9.82833 3.68415 10.5262 3.68415C11.224 3.68415 11.8934 3.96141 12.3871 4.45479C12.8805 4.94844 13.1577 5.61785 13.1577 6.3157C13.157 7.01332 12.8793 7.68224 12.3861 8.17565C11.8927 8.66883 11.2238 8.94653 10.5262 8.94725ZM10.5262 4.73677C10.1075 4.73677 9.70568 4.90312 9.40969 5.19917C9.11369 5.49522 8.94729 5.89703 8.94729 6.31567C8.94729 6.73431 9.11364 7.13617 9.40969 7.43217C9.70574 7.72817 10.1075 7.89457 10.5262 7.89457C10.9448 7.89457 11.3467 7.72822 11.6427 7.43217C11.9387 7.13612 12.1051 6.73431 12.1051 6.31567C12.1046 5.89698 11.938 5.49565 11.6422 5.1996C11.3462 4.90378 10.9448 4.7372 10.5261 4.73673L10.5262 4.73677Z" fill="#4F4F4F"/>
</svg>
