<svg width="12" height="20" viewBox="0 0 12 20" fill="none" xmlns="http://www.w3.org/2000/svg">
<path d="M11.6706 6.80633C11.5411 6.5295 11.2597 6.35059 10.9538 6.35059H8.05141L11.305 1.21529C11.4586 0.972884 11.4686 0.665022 11.3302 0.410875C11.1915 0.157465 10.9254 0 10.6359 0L5.5551 0.000141089C5.25231 0.000141089 4.98085 0.168613 4.84706 0.438251L0.0841612 9.96333C-0.0391591 10.2086 -0.0264591 10.4958 0.119577 10.7346C0.265332 10.9691 0.516906 11.109 0.792184 11.109H3.34337L0.0627221 18.9014C-0.0896647 19.2633 0.0425456 19.676 0.384141 19.8875C0.508024 19.9612 0.648979 20 0.792487 20C1.026 20 1.24667 19.8978 1.39834 19.7184L11.5592 7.65291C11.7582 7.4177 11.8018 7.08484 11.6706 6.80645L11.6706 6.80633ZM1.33603 18.3199L4.49408 10.8186C4.55574 10.6723 4.53994 10.5048 4.45203 10.3724C4.36413 10.2403 4.21597 10.1606 4.05694 10.1606H1.04551L5.652 0.947946H10.3517L6.78942 6.57088C6.69714 6.71692 6.69107 6.90176 6.7746 7.05317C6.85799 7.20457 7.01729 7.29868 7.18985 7.29868H10.6172L1.33603 18.3199Z" fill="#4F4F4F"/>
</svg>
