<svg width="14" height="16" viewBox="0 0 14 16" fill="none" xmlns="http://www.w3.org/2000/svg">
<path d="M11.8034 13.9017V2.38419e-07H1.07288e-05V13.9017C1.07288e-05 15.0605 0.939405 16 2.09835 16H13.9014C12.7426 16 11.8034 15.0605 11.8034 13.9017ZM5.54208 5.82611C5.01162 5.5579 4.28507 5.19017 4.28507 4.35552C4.28507 3.56076 4.69019 2.98135 5.3684 2.79149V2.27245C5.3684 1.97792 5.60721 1.73912 5.90173 1.73912C6.19626 1.73912 6.43506 1.97792 6.43506 2.27245V2.83793C6.89769 3.00865 7.25124 3.34018 7.43267 3.59197C7.60481 3.83102 7.55064 4.16434 7.31159 4.3365C7.07362 4.50817 6.74206 4.45495 6.56911 4.21829C6.5478 4.18996 6.15994 3.68864 5.67018 3.81174C5.57483 3.83543 5.35174 3.89114 5.35174 4.35555C5.35174 4.50972 5.54995 4.63472 6.02365 4.87459C6.62494 5.17876 7.53328 5.63838 7.53328 6.77304C7.53328 7.59507 7.04103 8.16957 6.43507 8.41112V8.99361C6.43507 9.28814 6.19627 9.52695 5.90174 9.52695C5.60722 9.52695 5.36841 9.28814 5.36841 8.99361V8.47884C4.78604 8.32277 4.27045 7.83443 4.27045 6.94992C4.27045 6.6554 4.50926 6.41659 4.80378 6.41659C5.0983 6.41659 5.33711 6.6554 5.33711 6.94992C5.33711 7.29683 5.48711 7.47289 5.78295 7.47289C6.04723 7.47289 6.46652 7.28277 6.46652 6.77313C6.46664 6.33933 6.18482 6.15156 5.54208 5.82611ZM9.18032 14.4761H2.62309C2.32856 14.4761 2.08976 14.2373 2.08976 13.9428C2.08976 13.6483 2.32856 13.4095 2.62309 13.4095H9.18032C9.47484 13.4095 9.71365 13.6483 9.71365 13.9428C9.71365 14.2373 9.47484 14.4761 9.18032 14.4761ZM9.18032 12.4689H2.62309C2.32856 12.4689 2.08976 12.2301 2.08976 11.9356C2.08976 11.641 2.32856 11.4022 2.62309 11.4022H9.18032C9.47484 11.4022 9.71365 11.641 9.71365 11.9356C9.71365 12.2301 9.47484 12.4689 9.18032 12.4689Z" fill="#7A7B80"/>
</svg>
