<svg width="14" height="17" viewBox="0 0 14 17" fill="none" xmlns="http://www.w3.org/2000/svg">
<path fill-rule="evenodd" clip-rule="evenodd" d="M3 2.12514V4.9585C3 5.14527 3.13594 5.29824 3.30837 5.31176L3.33332 5.31265H10.6667C10.8424 5.31265 10.9864 5.16821 10.9991 4.98483L11 4.9585V2.12515H13.6667C13.8508 2.12515 14 2.28363 14 2.47929V16.6459C14 16.8413 13.8508 17 13.6667 17H0.333315C0.149161 17 0 16.8413 0 16.6459V2.47929C0 2.28363 0.149165 2.12515 0.333315 2.12515L3 2.12514ZM9.54819 7.16548L9.5276 7.18593L5.66173 11.3448L4.47226 10.065C4.35223 9.93587 4.16138 9.92893 4.03383 10.0446L4.01324 10.065L3.09498 11.0529C2.97511 11.1824 2.96875 11.3875 3.07589 11.525L3.09481 11.5472L5.4302 14.0646L5.45079 14.0849C5.57133 14.1941 5.74811 14.1941 5.86848 14.0847L5.88907 14.0645L10.9051 8.66758C11.0253 8.53845 11.0317 8.333 10.9242 8.19588L10.9051 8.17365L9.98684 7.18575C9.86681 7.05644 9.67596 7.04968 9.54841 7.1653L9.54819 7.16548ZM7.00001 0C7.74029 0 8.38667 0.427429 8.7324 1.06262H9.66673C9.85089 1.06262 10 1.2211 10 1.41676V3.89595C10 4.08254 9.86411 4.2355 9.69151 4.24902L9.66673 4.25009H4.33312C4.15734 4.25009 4.01337 4.10548 4.00065 3.92227L3.99981 1.41677C3.99981 1.22111 4.14897 1.06262 4.33312 1.06262H5.26746C5.61316 0.427448 6.25952 6.25336e-06 6.99984 6.25336e-06L7.00001 0ZM7.00001 1.06262C6.44771 1.06262 6.00006 1.53824 6.00006 2.12505C6.00006 2.71187 6.44771 3.18749 7.00001 3.18749C7.55232 3.18749 7.99996 2.71187 7.99996 2.12505C7.99996 1.53824 7.55232 1.06262 7.00001 1.06262V1.06262Z" fill="#7A7B80"/>
</svg>
