<svg width="16" height="16" viewBox="0 0 16 16" fill="none" xmlns="http://www.w3.org/2000/svg">
<path d="M16 0.779794V12.823C16 13.0296 15.9231 13.2279 15.7862 13.3741C15.6494 13.5203 15.4637 13.6024 15.2701 13.6024H13.4413V14.4535C13.4434 14.6791 13.361 14.8964 13.2121 15.0565C13.0633 15.2167 12.8606 15.3066 12.6493 15.3062H11.0408C10.8313 15.3062 10.6302 15.2172 10.482 15.059C10.3337 14.9007 10.2505 14.686 10.2505 14.4622V13.6025H8.78088C8.69078 13.3513 8.55227 13.123 8.37425 12.9328L7.09566 11.5674H13.6927C13.8026 11.5664 13.9079 11.5188 13.985 11.4351C14.0622 11.3515 14.105 11.2385 14.1041 11.1209V2.47828C14.1041 2.23365 13.9184 2.03524 13.6894 2.03524H3.70575C3.47669 2.03524 3.2909 2.23364 3.2909 2.47828V5.70441V5.70429C3.05056 5.65332 2.80612 5.62765 2.56101 5.62753C2.16532 5.62838 1.77222 5.69663 1.39679 5.82982V0.779494C1.39667 0.57404 1.47276 0.376726 1.60819 0.230772C1.74374 0.0848018 1.9277 0.00184104 2.12009 1.62197e-05H15.2652C15.4596 -0.00132185 15.6465 0.0801775 15.7845 0.226512C15.9224 0.372846 16 0.571857 16 0.779501L16 0.779794ZM6.21379 10.2595C6.34124 9.48259 6.24762 8.68279 5.94486 7.96342C5.64209 7.24401 5.14422 6.63812 4.51546 6.22417V3.34164H12.8793V10.2594L6.21379 10.2595ZM7.75685 6.65658C7.75685 6.83223 7.82223 7.00084 7.93864 7.12515C8.05494 7.24935 8.21281 7.31917 8.3774 7.31917H9.61519C9.79425 7.61087 10.0826 7.80536 10.4061 7.85295C10.7296 7.90038 11.0565 7.79614 11.3027 7.56697C11.5488 7.33779 11.6901 7.00619 11.6901 6.65745C11.6901 6.30871 11.5488 5.97698 11.3027 5.74781C11.0565 5.51864 10.7296 5.4144 10.4061 5.46196C10.0826 5.50939 9.79426 5.70402 9.61519 5.99561H8.3758C8.21178 5.99609 8.05458 6.06591 7.93864 6.18975C7.82268 6.31358 7.7573 6.48144 7.75685 6.6566V6.65658ZM7.56093 13.7958C7.68531 13.9292 7.75525 14.1098 7.75525 14.2981C7.75525 14.4864 7.68532 14.6669 7.56093 14.8003L6.66121 15.7612C6.53934 15.9076 6.36621 15.994 6.18282 15.9997C5.99944 16.0054 5.82186 15.9302 5.69213 15.7916C5.56239 15.653 5.49188 15.4635 5.49724 15.2675C5.50271 15.0717 5.58346 14.8869 5.72061 14.7567L6.04716 14.4079L5.46578 13.787L5.13922 14.1358L5.13934 14.1359C5.01735 14.2824 4.84433 14.3686 4.66095 14.3744C4.47745 14.3802 4.29998 14.3049 4.17025 14.1663C4.04052 14.0278 3.97001 13.8381 3.97536 13.6423C3.98071 13.4464 4.06159 13.2615 4.19873 13.1314L4.52529 12.7827L3.7823 11.9927C3.05536 12.4132 2.18308 12.4332 1.43986 12.0465C0.696646 11.6597 0.173817 10.9138 0.0358922 10.0432C-0.101933 9.17258 0.161984 8.28446 0.744817 7.65814C1.32754 7.03194 2.15757 6.74448 2.97359 6.8862C3.78959 7.02804 4.49149 7.58163 4.85826 8.3729C5.22503 9.16418 5.2117 10.096 4.82249 10.8748L7.56093 13.7958ZM3.29752 8.79779C3.10241 8.58844 2.83736 8.47044 2.56066 8.46997C2.2841 8.46949 2.0187 8.58651 1.8229 8.79523C1.6271 9.00385 1.51719 9.28716 1.51719 9.58249C1.51719 9.87796 1.62711 10.1613 1.8229 10.3699C2.0187 10.5786 2.28409 10.6956 2.56066 10.6951C2.83734 10.6946 3.10239 10.5767 3.29752 10.3673C3.49253 10.1592 3.60209 9.87698 3.60209 9.58249C3.60209 9.28812 3.49252 9.00577 3.29752 8.79779V8.79779Z" fill="#7A7B80"/>
</svg>
