<svg width="16" height="16" viewBox="0 0 16 16" fill="none" xmlns="http://www.w3.org/2000/svg">
<path fill-rule="evenodd" clip-rule="evenodd" d="M14.0666 1.14509H10.9551L10.9239 1.14442C10.8927 1.14177 10.8619 1.13812 10.8311 1.13099C10.7601 1.11508 10.6921 1.08457 10.6328 1.0423C10.4779 0.932721 10.3884 0.746377 10.3989 0.556868C10.4018 0.50481 10.4123 0.453254 10.4294 0.40418C10.4501 0.345162 10.4806 0.289459 10.5196 0.240716C10.5653 0.183519 10.6217 0.135608 10.6855 0.100298C10.7405 0.0702912 10.8002 0.0490721 10.8619 0.0386275C10.8894 0.0341513 10.896 0.0341514 10.9239 0.0314988C12.4237 -0.0104442 13.9259 -0.0104442 15.426 0.0311673H15.4323L15.4367 0.0314988H15.4427C15.4479 0.032162 15.4532 0.0326593 15.4583 0.0329909L15.4739 0.0341514C15.5104 0.0397879 15.52 0.0401192 15.5556 0.049735C15.5675 0.0530506 15.579 0.0563665 15.5906 0.0601793L15.5954 0.0620029L15.6062 0.0661475L15.6158 0.0694632L15.6247 0.0731104L15.6304 0.0757629C15.6576 0.0872019 15.6831 0.10063 15.708 0.116214C15.755 0.145889 15.7975 0.182361 15.8338 0.224636C15.8512 0.245028 15.8673 0.266579 15.8817 0.28929L15.8829 0.291114C15.8996 0.317473 15.914 0.345323 15.9263 0.37467C15.9407 0.409982 15.9508 0.445627 15.9578 0.482431L15.959 0.488068C15.9604 0.49702 15.9619 0.505475 15.9631 0.514095C15.9649 0.528187 15.9664 0.542278 15.9679 0.556867C16.0099 2.05192 15.9686 3.54841 15.9686 5.0441C15.9679 5.07195 15.9682 5.07908 15.9653 5.10643C15.9581 5.16843 15.9404 5.22928 15.9132 5.28581C15.8817 5.35146 15.8371 5.41098 15.7829 5.45922C15.7439 5.4942 15.7 5.52354 15.6533 5.54576C15.4724 5.63296 15.2529 5.61439 15.0891 5.49818C15.0382 5.4622 14.9933 5.41728 14.9573 5.36638C14.909 5.29841 14.8764 5.21966 14.8623 5.13727C14.8572 5.10643 14.8552 5.0756 14.8545 5.0441V1.93254L7.63582 9.15166C7.60863 9.17652 7.60233 9.18398 7.57266 9.20586C7.52773 9.23886 7.47832 9.26488 7.42561 9.28345C7.36029 9.30649 7.2905 9.31694 7.22103 9.31429C7.03867 9.30765 6.86709 9.20852 6.77027 9.05401C6.7406 9.00692 6.71822 8.95553 6.70379 8.90182C6.68937 8.84827 6.68307 8.79224 6.68523 8.73687C6.68887 8.63955 6.71822 8.54373 6.77027 8.46134C6.79249 8.42569 6.81934 8.39452 6.84786 8.36369L14.067 1.14499L14.0666 1.14509Z" fill="#4F4F4F"/>
<path d="M7.29399 1.51941C7.34041 1.52604 7.35268 1.52604 7.39793 1.53947C7.50005 1.56915 7.59256 1.62867 7.66203 1.70874C7.69701 1.74886 7.72585 1.79378 7.74774 1.84203C7.76995 1.89027 7.78487 1.942 7.79266 1.99421C7.81538 2.1527 7.76747 2.317 7.66236 2.43835C7.61594 2.4919 7.55957 2.53633 7.49674 2.56866C7.43391 2.60099 7.36494 2.62138 7.29432 2.62801C7.27692 2.62983 7.25901 2.62983 7.2416 2.63066C6.85102 2.63066 6.46028 2.63099 6.06969 2.63248C5.43873 2.63613 4.80743 2.6411 4.17727 2.67559C3.82714 2.69449 3.4765 2.72234 3.12967 2.77622C3.03568 2.79064 2.94184 2.80738 2.8485 2.82678C2.78501 2.84021 2.72185 2.85463 2.65918 2.87105C2.36873 2.94598 2.07495 3.05672 1.847 3.25798C1.8039 3.29578 1.76378 3.33706 1.72631 3.38083C1.61274 3.51346 1.52869 3.66896 1.46453 3.83061C1.38695 4.02524 1.33489 4.22982 1.2956 4.43522C1.23956 4.72517 1.20691 5.01946 1.18386 5.31306C1.14407 5.81106 1.13081 6.31058 1.12302 6.80994C1.11639 7.25739 1.1149 7.70535 1.1144 8.15309C1.11407 8.55644 1.11407 8.95963 1.1144 9.36299C1.11473 9.92965 1.11705 10.4968 1.13114 11.0634C1.14374 11.5596 1.1638 12.0571 1.22034 12.5507C1.23526 12.6806 1.25299 12.8099 1.27454 12.9387C1.31466 13.175 1.36771 13.4111 1.45243 13.6357C1.52222 13.8211 1.61539 13.9999 1.74769 14.149C2.00764 14.4424 2.39126 14.5812 2.76329 14.6677C2.84054 14.6856 2.91846 14.7016 2.99655 14.7156C3.09535 14.7335 3.19482 14.7486 3.29429 14.7617C3.80192 14.8294 4.31549 14.8516 4.82677 14.866C5.43024 14.8828 6.03433 14.8846 6.6383 14.8849C7.04016 14.8852 7.44234 14.8852 7.84455 14.8849C8.33177 14.8846 8.81869 14.8828 9.30577 14.8735C9.79367 14.8642 10.2821 14.8489 10.7685 14.8058C11.0545 14.7806 11.3408 14.746 11.6219 14.687C11.8597 14.6369 12.0969 14.5699 12.3146 14.4605C12.4434 14.3958 12.5646 14.3149 12.6685 14.2143C12.9273 13.964 13.0569 13.6127 13.1401 13.2695C13.1557 13.2048 13.1698 13.1395 13.1829 13.0742C13.2018 12.9784 13.2179 12.8819 13.232 12.7849C13.2517 12.649 13.2673 12.5124 13.2806 12.3758C13.3228 11.9388 13.3407 11.4989 13.3518 11.0596C13.3711 10.2927 13.3686 9.52512 13.3689 8.75754L13.3716 8.70482C13.3742 8.68741 13.3757 8.66951 13.379 8.6521C13.3925 8.58264 13.4191 8.51616 13.4578 8.45647C13.4863 8.41188 13.5213 8.37143 13.5614 8.33695C13.6827 8.23184 13.847 8.18393 14.0055 8.20664C14.0582 8.21443 14.1095 8.22935 14.1577 8.25157C14.222 8.28091 14.2806 8.32252 14.3293 8.37375C14.4029 8.451 14.453 8.54865 14.473 8.65293C14.482 8.69935 14.4808 8.71128 14.483 8.75837C14.4827 9.14978 14.4827 9.54118 14.4808 9.93261C14.4787 10.3177 14.4752 10.7028 14.4656 11.088C14.4589 11.3509 14.4497 11.6138 14.4347 11.8764C14.4236 12.0792 14.409 12.2816 14.3895 12.4835C14.3775 12.6079 14.3635 12.7321 14.3467 12.8561C14.3348 12.9441 14.3218 13.0321 14.3069 13.1196C14.2138 13.6692 14.0551 14.2238 13.7283 14.6826C13.6789 14.7524 13.6259 14.8193 13.5693 14.8832C13.481 14.9832 13.3837 15.0761 13.2797 15.1596C13.1264 15.2829 12.9581 15.3869 12.7814 15.4731C12.384 15.6666 11.948 15.7708 11.5131 15.8388C11.1993 15.8879 10.8825 15.9179 10.5659 15.9391C10.2343 15.9618 9.90159 15.9741 9.56919 15.9822C9.09123 15.9945 8.61297 15.9975 8.135 15.999C7.63548 16.0005 7.1365 16.0001 6.63698 15.9993C6.06289 15.999 5.48845 15.9971 4.91432 15.9829C4.38581 15.97 3.85628 15.9484 3.33091 15.8889C3.21055 15.8751 3.09019 15.8595 2.97066 15.841C2.39241 15.7511 1.80423 15.5948 1.32079 15.2519C1.25132 15.2029 1.18418 15.1498 1.12019 15.0938C1.02884 15.0132 0.944127 14.926 0.866206 14.8323C0.811661 14.767 0.760767 14.6982 0.713187 14.6274C0.413451 14.1803 0.265397 13.6505 0.176229 13.125C0.156501 13.0069 0.139426 12.8887 0.124673 12.77C0.109089 12.6442 0.0961579 12.5175 0.0848849 12.3912C0.0663172 12.1855 0.0528885 11.9797 0.0429418 11.7736C0.027358 11.4655 0.0184061 11.1573 0.0124377 10.8489C0.00497747 10.4504 0.00249051 10.0523 0.00133019 9.65396C-0.000493395 9.15329 -0.00016185 8.65278 0.000667055 8.15211C0.000998643 7.61664 0.00282271 7.08117 0.0140961 6.54566C0.020396 6.24261 0.0300113 5.93922 0.0464239 5.6365C0.0571999 5.43374 0.0712914 5.23132 0.0906893 5.02938C0.105112 4.87488 0.123017 4.72086 0.144898 4.56733C0.157166 4.48046 0.170926 4.39393 0.18651 4.30739C0.280011 3.78749 0.436841 3.26496 0.745366 2.82944C0.794771 2.75998 0.847487 2.69317 0.903856 2.62934C0.992217 2.52904 1.0892 2.43653 1.19348 2.35265C1.35611 2.22152 1.53582 2.11276 1.72483 2.02357C2.0869 1.85348 2.47947 1.755 2.87272 1.68935C3.14858 1.64326 3.42678 1.61292 3.70528 1.59054C3.9886 1.56783 4.27275 1.55374 4.55723 1.54379C4.9687 1.52937 5.38049 1.5234 5.79233 1.52042C6.27543 1.51627 6.75853 1.5171 7.24129 1.51677C7.25919 1.51743 7.2766 1.51826 7.29434 1.51942L7.29399 1.51941Z" fill="#4F4F4F"/>
</svg>
