<svg width="20" height="20" viewBox="0 0 20 20" fill="none" xmlns="http://www.w3.org/2000/svg">
<path d="M2.25809 2.25809C2.25809 2.07981 2.40253 1.93551 2.58067 1.93551H7.41937C7.59751 1.93551 7.74195 2.07981 7.74195 2.25809C7.74195 2.43637 7.59751 2.58067 7.41937 2.58067H2.58067C2.40253 2.58067 2.25809 2.43637 2.25809 2.25809ZM2.58067 4.51615H7.41937C7.59751 4.51615 7.74195 4.37185 7.74195 4.19357C7.74195 4.01529 7.59751 3.87099 7.41937 3.87099H2.58067C2.40253 3.87099 2.25809 4.01529 2.25809 4.19357C2.25809 4.37185 2.40253 4.51615 2.58067 4.51615ZM2.58067 6.45163H12.2581C12.4362 6.45163 12.5807 6.30733 12.5807 6.12905C12.5807 5.95077 12.4362 5.80647 12.2581 5.80647H2.58067C2.40253 5.80647 2.25809 5.95077 2.25809 6.12905C2.25809 6.30733 2.40253 6.45163 2.58067 6.45163ZM12.2581 17.4194H2.58067C2.40253 17.4194 2.25809 17.5637 2.25809 17.7419C2.25809 17.9202 2.40253 18.0645 2.58067 18.0645H12.2581C12.4362 18.0645 12.5807 17.9202 12.5807 17.7419C12.5807 17.5637 12.4362 17.4194 12.2581 17.4194ZM20 18.711C20 19.0563 19.8662 19.3803 19.6233 19.6233C19.3802 19.8661 19.0562 20 18.7108 20C18.3653 20 18.0415 19.8661 17.7985 19.6233L15.2894 17.1142C15.0465 16.8712 14.9127 16.5475 14.9127 16.2019C14.9127 16.1555 14.9212 16.1112 14.926 16.0661L14.8387 15.9788V19.0322C14.8387 19.5659 14.4047 20 13.8709 20H0.96774C0.434027 20 0 19.5659 0 19.0322V0.967741C0 0.434027 0.434027 0 0.96774 0H9.99998C10.0855 0 10.1676 0.0339863 10.2281 0.0944699L14.7442 4.61059C14.8047 4.67108 14.8387 4.75302 14.8387 4.8387V8.45824C15.6356 9.27291 16.129 10.3859 16.129 11.6129C16.129 12.5674 15.8295 13.4523 15.3223 14.1821L16.0661 14.926C16.1113 14.9212 16.1555 14.9127 16.2017 14.9127C16.5472 14.9127 16.8711 15.0463 17.114 15.2891L19.6234 17.7986C19.866 18.0414 20 18.3653 20 18.711ZM15.4839 11.6127C15.4839 9.47825 13.7473 7.74177 11.6129 7.74177C9.47854 7.74177 7.74195 9.47825 7.74195 11.6127C7.74195 13.7472 9.47854 15.4837 11.6129 15.4837C13.7473 15.4837 15.4839 13.7472 15.4839 11.6127ZM10.3226 4.19339C10.3226 4.37138 10.4673 4.51597 10.6452 4.51597H13.7373L10.3226 1.10123V4.19339ZM14.1936 15.3336L14.1822 15.3223C13.6766 15.6735 13.0969 15.9239 12.4708 16.0449C12.4139 16.0956 12.3404 16.129 12.2581 16.129H2.58067C2.40253 16.129 2.25809 15.9847 2.25809 15.8064C2.25809 15.6282 2.40253 15.4839 2.58067 15.4839H9.29881C8.75087 15.1549 8.27736 14.7159 7.91216 14.1935H2.58056C2.40242 14.1935 2.25798 14.0492 2.25798 13.871C2.25798 13.6927 2.40242 13.5484 2.58056 13.5484H7.53871C7.34718 13.147 7.21397 12.7138 7.14829 12.2581H2.58056C2.40242 12.2581 2.25798 12.1138 2.25798 11.9355C2.25798 11.7572 2.40242 11.6129 2.58056 11.6129H7.09668C7.09668 11.1643 7.16451 10.7319 7.28692 10.3226H2.58056C2.40243 10.3226 2.25798 10.1783 2.25798 10C2.25798 9.82172 2.40243 9.67742 2.58056 9.67742H7.53871C7.76913 9.19414 8.07976 8.7572 8.4582 8.3871H2.5806C2.40246 8.3871 2.25802 8.2428 2.25802 8.06452C2.25802 7.88624 2.40246 7.74194 2.5806 7.74194H9.29875C9.97646 7.33527 10.7664 7.09678 11.6128 7.09678C12.5724 7.09678 13.4612 7.39978 14.1935 7.912V5.1613H10.6451C10.1114 5.1613 9.67737 4.72727 9.67737 4.19356V0.645176H0.967701C0.78985 0.645176 0.645121 0.789762 0.645121 0.967756V19.0322C0.645121 19.2102 0.78985 19.3548 0.967701 19.3548H13.8709C14.0488 19.3548 14.1935 19.2102 14.1935 19.0322L14.1936 15.3336ZM15.1867 15.4146C15.2198 15.3721 15.2507 15.3283 15.2893 15.2896C15.3279 15.2508 15.3719 15.22 15.4143 15.1869L14.9132 14.6857C14.8399 14.7645 14.764 14.8401 14.6854 14.9136L14.7435 14.9715L14.7447 14.9728L15.1867 15.4146ZM19.3548 18.7109C19.3548 18.5377 19.2881 18.3757 19.167 18.2547L16.6576 15.7452C16.5367 15.6243 16.3747 15.5577 16.2014 15.5577C16.0283 15.5577 15.8662 15.6243 15.7452 15.7452C15.6242 15.8662 15.5574 16.0285 15.5574 16.2017C15.5574 16.375 15.6241 16.537 15.7452 16.658L18.2543 19.1671C18.4965 19.4096 18.9245 19.409 19.1667 19.1671C19.288 19.0461 19.3548 18.8839 19.3548 18.7109Z" fill="#BDBDBD"/>
<path d="M13.243 13.243C13.1206 13.3654 12.9165 13.3654 12.794 13.243L11.6675 12.1165L10.5491 13.243C10.4267 13.3736 10.2307 13.3736 10.1001 13.2593C9.96949 13.1369 9.96949 12.941 10.0838 12.8103L10.1001 12.794L11.2267 11.6757L10.1002 10.5491C9.96955 10.4267 9.96955 10.2307 10.0838 10.1001C10.2063 9.96949 10.4022 9.96949 10.5328 10.0838L11.6757 11.2267L12.8023 10.1001C12.9247 9.97769 13.1206 9.96949 13.2512 10.092C13.3737 10.2144 13.3819 10.4103 13.2594 10.541L13.2512 10.5491L12.1164 11.6757L13.243 12.8022C13.3655 12.9165 13.3655 13.1206 13.243 13.243Z" fill="#BDBDBD"/>
</svg>
