<svg width="20" height="20" viewBox="0 0 20 20" fill="none" xmlns="http://www.w3.org/2000/svg">
<path d="M9.99993 0C4.47804 0 0 4.47803 0 9.99993C0 12.4565 0.891358 14.6956 2.34784 16.4349C2.54349 16.6522 2.73914 16.8697 2.95649 17.087C4.76089 18.8913 7.26086 20 10 20C12.7391 20 15.239 18.8913 17.0435 17.0869C17.2609 16.8696 17.4565 16.6521 17.6522 16.4347C19.1088 14.6957 20 12.4564 20 10.0002C20 4.47826 15.522 0.000223587 10.0001 0.000223587L9.99993 0ZM9.99993 19.1304C7.47813 19.1304 5.17381 18.0869 3.52176 16.4348C4.65215 15.2826 6.21737 14.5652 7.95656 14.5652H12.0437C13.7829 14.5652 15.3481 15.2826 16.4785 16.4348C14.8262 18.0869 12.5218 19.1304 9.99993 19.1304ZM17.0651 15.7826C15.7825 14.4999 13.9998 13.6956 12.0433 13.6956H11.9998C13.6304 12.9347 14.7824 11.2826 14.7824 9.34768C14.7824 6.71728 12.6302 4.56517 9.99993 4.56517C7.3696 4.56517 5.21742 6.71735 5.21742 9.34768C5.21742 11.2825 6.36965 12.9346 8.00009 13.6956H7.95656C6.00003 13.6956 4.21754 14.4999 2.9348 15.7826C1.65213 14.1955 0.86952 12.1956 0.86952 9.99985C0.86952 4.95647 4.95662 0.869371 10 0.869371C15.0434 0.869371 19.1305 4.95647 19.1305 9.99985C19.1305 12.1956 18.3479 14.1954 17.0652 15.7826H17.0651ZM9.99993 13.2608C7.84774 13.2608 6.08686 11.4999 6.08686 9.34775C6.08686 7.19556 7.84774 5.43469 9.99993 5.43469C12.1521 5.43469 13.913 7.19556 13.913 9.34775C13.913 11.4999 12.1521 13.2608 9.99993 13.2608Z" fill="#4F4F4F"/>
</svg>
