<svg width="20" height="20" viewBox="0 0 20 20" fill="none" xmlns="http://www.w3.org/2000/svg">
<path d="M13.9246 12.8248L12.4957 12.5471C12.1841 12.0356 11.7812 11.356 11.614 11.0855V11.0857C12.296 10.2545 12.7788 9.28886 13.0278 8.25764C13.0316 8.22846 13.0316 8.19904 13.0278 8.16999V7.77542C13.7194 7.29306 13.917 5.58318 13.9551 5.20314L13.9549 5.20302C13.941 4.50177 13.7826 3.81008 13.4891 3.16792C13.1956 2.52577 12.7727 1.94578 12.2448 1.46158C11.3876 0.564147 10.19 0.0372535 8.9233 0H8.6649C8.62693 0 4.55283 0.189959 3.77755 4.05569C3.43369 5.27553 3.74441 6.57987 4.60607 7.53415V8.1188C4.60277 8.14541 4.60277 8.17239 4.60607 8.19913C4.85355 9.27929 5.37583 10.2837 6.12627 11.1221L5.03171 12.5472L3.67876 12.8176V12.8175C2.63374 13.0282 1.69652 13.5799 1.02607 14.3789C0.355623 15.178 -0.0068897 16.1754 9.91952e-05 17.202C9.91952e-05 17.3958 0.163392 17.5528 0.36492 17.5528H17.2537C17.3504 17.5528 17.4432 17.5159 17.5116 17.4501C17.58 17.3843 17.6185 17.2951 17.6185 17.2021C17.6243 16.1742 17.2595 15.1764 16.5859 14.3782C15.9124 13.58 14.9719 13.031 13.9245 12.8248L13.9246 12.8248ZM7.62356 14.3448V14.3449C6.78957 14.1581 6.08662 13.6218 5.70808 12.8833L6.65815 11.6118H6.65827C7.16251 12.0105 7.77377 12.2639 8.42162 12.3426L7.7908 14.3814H7.79067C7.73886 14.3563 7.68147 14.3438 7.62357 14.3449L7.62356 14.3448ZM8.83202 13.5191L10.0557 16.8076H7.82116L8.83202 13.5191ZM9.19684 12.3865C9.88646 12.3111 10.5359 12.0358 11.059 11.5972C11.2489 11.9261 11.5607 12.4449 11.8191 12.8613C11.4414 13.5975 10.7419 14.1333 9.91133 14.3229L9.19684 12.3865ZM4.49965 4.231C4.68935 3.28498 5.20208 2.42687 5.95659 1.79278C6.7111 1.15868 7.66419 0.784868 8.66477 0.730675H8.91555C9.98368 0.768032 10.9947 1.203 11.7355 1.94379C12.6637 2.77455 13.2105 3.92591 13.2556 5.1444C13.2173 5.51394 13.1513 5.88032 13.058 6.24057V5.80218C13.0575 5.72198 13.0339 5.64348 12.9895 5.5756C12.8528 5.38564 12.64 5.35634 12.0546 5.27601H12.0547C11.0052 5.17285 9.97924 4.91148 9.01448 4.50141C8.16232 4.02396 7.46496 3.3282 7.00022 2.49181C6.93851 2.37669 6.81571 2.30356 6.68099 2.30185C6.54868 2.30515 6.42653 2.37071 6.35414 2.47716C5.70047 3.5222 4.62889 5.34903 4.62889 5.80217V6.30637C4.3776 5.64115 4.33278 4.92024 4.49962 4.23099L4.49965 4.231ZM5.36614 5.84603C5.72511 4.98976 6.15722 4.16362 6.65828 3.37608C7.16847 4.10796 7.86089 4.7058 8.67241 5.11524C9.70628 5.5595 10.8068 5.84309 11.9331 5.95567L12.3056 6.00682V8.07489C11.9255 9.49984 10.9831 11.6921 8.83192 11.6921C7.03821 11.6921 5.79169 9.82865 5.36608 8.08958L5.36614 5.84603ZM3.84594 13.5336L5.06201 13.2925V13.2924C5.54808 14.2013 6.43223 14.853 7.47143 15.0682H7.59307L7.0534 16.8074H0.790374C0.870116 16.0131 1.21182 15.2642 1.7657 14.6701C2.31945 14.0758 3.0563 13.6674 3.86871 13.5043L3.84594 13.5336ZM10.8387 16.8074L10.1698 14.9877C11.1514 14.7438 11.9797 14.112 12.45 13.2486L13.7877 13.5043C14.602 13.6649 15.3413 14.0725 15.8967 14.667C16.4522 15.2616 16.7947 16.0118 16.8737 16.8074L10.8387 16.8074Z" fill="#4F4F4F"/>
<rect width="12.95" height="5.08296" rx="2.54148" transform="matrix(0.720869 -0.693071 0.720869 0.693071 7.00059 16.4772)" fill="white"/>
<path d="M12.4534 18.6094C11.4844 19.541 9.91124 19.541 8.94231 18.6094C7.97337 17.6777 7.97329 16.1652 8.94231 15.2337L11.0077 13.248C11.9767 12.3163 13.5498 12.3163 14.5188 13.248H14.5189C14.5749 13.3003 14.6067 13.3721 14.6073 13.4473C14.6078 13.5225 14.577 13.5947 14.5217 13.6479C14.4664 13.7009 14.3913 13.7306 14.3131 13.7301C14.2349 13.7295 14.1603 13.699 14.1058 13.6451C13.3584 12.9266 12.168 12.9266 11.4209 13.6451L9.35551 15.6308C8.60818 16.3494 8.60818 17.4938 9.35551 18.2122C10.1028 18.9307 11.2932 18.9307 12.0404 18.2122L14.0025 16.3257V16.3258C14.057 16.2719 14.1316 16.2414 14.2098 16.2409C14.2879 16.2404 14.3631 16.27 14.4183 16.3231C14.4735 16.3762 14.5044 16.4484 14.5039 16.5235C14.5034 16.5987 14.4715 16.6704 14.4156 16.7229L12.4535 18.6094L12.4534 18.6094ZM16.3776 14.8365C15.4086 15.7681 13.8354 15.7681 12.8665 14.8365C12.8105 14.7841 12.7785 14.7123 12.778 14.6371C12.7774 14.5619 12.8082 14.4896 12.8635 14.4365C12.9189 14.3833 12.9939 14.3536 13.0722 14.3542C13.1504 14.3547 13.2251 14.3855 13.2796 14.4393C14.0269 15.1579 15.2173 15.1579 15.9645 14.4393L18.0298 12.4536C18.7772 11.7351 18.7772 10.5906 18.0298 9.87226C17.2825 9.15375 16.0921 9.15375 15.345 9.87226L13.3829 11.7587C13.3284 11.8125 13.2537 11.8432 13.1755 11.8438C13.0973 11.8443 13.0222 11.8147 12.9668 11.7615C12.9115 11.7083 12.8808 11.6361 12.8813 11.5609C12.8819 11.4858 12.9138 11.4139 12.9698 11.3615L14.9319 9.4751C15.9009 8.54346 17.474 8.54346 18.4429 9.4751C19.4119 10.4067 19.412 11.9192 18.4429 12.8508L16.3776 14.8365Z" fill="#4F4F4F"/>
</svg>
